<?xml version="1.0" encoding="iso-8859-1"?>
<!-- Uploaded to: SVG Repo, www.svgrepo.com, Generator: SVG Repo Mixer Tools -->
<svg height="800px" width="800px" version="1.1" id="Layer_1" xmlns="http://www.w3.org/2000/svg" xmlns:xlink="http://www.w3.org/1999/xlink" 
	 viewBox="0 0 512 512" xml:space="preserve">
<circle style="fill:#BEEBFF;" cx="256" cy="256" r="256"/>
<g>
	<path style="fill:#D9F3FF;" d="M105.931,194.207H52.966c-4.875,0-8.828-3.953-8.828-8.828l0,0c0-4.875,3.953-8.828,8.828-8.828
		h52.966c4.875,0,8.828,3.953,8.828,8.828l0,0C114.759,190.254,110.806,194.207,105.931,194.207z"/>
	<path style="fill:#D9F3FF;" d="M141.241,176.552H88.276c-4.875,0-8.828-3.953-8.828-8.828l0,0c0-4.875,3.953-8.828,8.828-8.828
		h52.966c4.875,0,8.828,3.953,8.828,8.828l0,0C150.069,172.599,146.116,176.552,141.241,176.552z"/>
	<path style="fill:#D9F3FF;" d="M441.379,273.655h-26.483c-4.875,0-8.828-3.953-8.828-8.828l0,0c0-4.875,3.953-8.828,8.828-8.828
		h26.483c4.875,0,8.828,3.953,8.828,8.828l0,0C450.207,269.703,446.254,273.655,441.379,273.655z"/>
	<path style="fill:#D9F3FF;" d="M459.034,256h-26.483c-4.875,0-8.828-3.953-8.828-8.828l0,0c0-4.875,3.953-8.828,8.828-8.828h26.483
		c4.875,0,8.828,3.953,8.828,8.828l0,0C467.862,252.047,463.91,256,459.034,256z"/>
	<path style="fill:#D9F3FF;" d="M132.414,273.655H79.448c-4.875,0-8.828-3.953-8.828-8.828l0,0c0-4.875,3.953-8.828,8.828-8.828
		h52.966c4.875,0,8.828,3.953,8.828,8.828l0,0C141.241,269.703,137.289,273.655,132.414,273.655z"/>
	<path style="fill:#D9F3FF;" d="M423.724,211.862h-8.828c-4.875,0-8.828-3.953-8.828-8.828l0,0c0-4.875,3.953-8.828,8.828-8.828
		h8.828c4.875,0,8.828,3.953,8.828,8.828l0,0C432.552,207.91,428.599,211.862,423.724,211.862z"/>
</g>
<path style="fill:#B4EB82;" d="M7.555,317.793C35.206,429.318,135.927,512,256,512s220.794-82.682,248.445-194.207H7.555z"/>
<g>
	<path style="fill:#9BD26E;" d="M9.945,326.621h492.109c1.665-5.81,3.171-11.684,4.428-17.655H5.518
		C6.774,314.936,8.28,320.811,9.945,326.621z"/>
	<path style="fill:#9BD26E;" d="M300.138,432.552H185.379c-4.875,0-8.828-3.953-8.828-8.828l0,0c0-4.875,3.953-8.828,8.828-8.828
		h114.759c4.875,0,8.828,3.953,8.828,8.828l0,0C308.966,428.599,305.013,432.552,300.138,432.552z"/>
</g>
<g>
	<path style="fill:#D7F082;" d="M185.379,397.241h-17.655c-4.875,0-8.828-3.953-8.828-8.828l0,0c0-4.875,3.953-8.828,8.828-8.828
		h17.655c4.875,0,8.828,3.953,8.828,8.828l0,0C194.207,393.289,190.254,397.241,185.379,397.241z"/>
	<path style="fill:#D7F082;" d="M450.207,361.931h-35.31c-4.875,0-8.828-3.953-8.828-8.828l0,0c0-4.875,3.953-8.828,8.828-8.828
		h35.31c4.875,0,8.828,3.953,8.828,8.828l0,0C459.034,357.978,455.082,361.931,450.207,361.931z"/>
	<path style="fill:#D7F082;" d="M406.069,397.241h-35.31c-4.875,0-8.828-3.953-8.828-8.828l0,0c0-4.875,3.953-8.828,8.828-8.828
		h35.31c4.875,0,8.828,3.953,8.828,8.828l0,0C414.897,393.289,410.944,397.241,406.069,397.241z"/>
	<path style="fill:#D7F082;" d="M308.966,467.862h-61.793c-4.875,0-8.828-3.953-8.828-8.828l0,0c0-4.875,3.953-8.828,8.828-8.828
		h61.793c4.875,0,8.828,3.953,8.828,8.828l0,0C317.793,463.91,313.841,467.862,308.966,467.862z"/>
	<path style="fill:#D7F082;" d="M211.862,467.862h-8.828c-4.875,0-8.828-3.953-8.828-8.828l0,0c0-4.875,3.953-8.828,8.828-8.828
		h8.828c4.875,0,8.828,3.953,8.828,8.828l0,0C220.69,463.91,216.737,467.862,211.862,467.862z"/>
	<path style="fill:#D7F082;" d="M132.414,397.241h-35.31c-4.875,0-8.828-3.953-8.828-8.828l0,0c0-4.875,3.953-8.828,8.828-8.828
		h35.31c4.875,0,8.828,3.953,8.828,8.828l0,0C141.241,393.289,137.289,397.241,132.414,397.241z"/>
</g>
<path style="fill:#9BD26E;" d="M344.276,432.552h-8.828c-4.875,0-8.828-3.953-8.828-8.828l0,0c0-4.875,3.953-8.828,8.828-8.828
	h8.828c4.875,0,8.828,3.953,8.828,8.828l0,0C353.103,428.599,349.151,432.552,344.276,432.552z"/>
<g>
	<path style="fill:#EBF9FF;" d="M291.31,52.966H256c-4.875,0-8.828-3.953-8.828-8.828l0,0c0-4.875,3.953-8.828,8.828-8.828h35.31
		c4.875,0,8.828,3.953,8.828,8.828l0,0C300.138,49.013,296.185,52.966,291.31,52.966z"/>
	<path style="fill:#EBF9FF;" d="M220.69,52.966h-17.655c-4.875,0-8.828-3.953-8.828-8.828l0,0c0-4.875,3.953-8.828,8.828-8.828
		h17.655c4.875,0,8.828,3.953,8.828,8.828l0,0C229.517,49.013,225.565,52.966,220.69,52.966z"/>
	<path style="fill:#EBF9FF;" d="M335.448,70.621h-52.966c-4.875,0-8.828-3.953-8.828-8.828l0,0c0-4.875,3.953-8.828,8.828-8.828
		h52.966c4.875,0,8.828,3.953,8.828,8.828l0,0C344.276,66.668,340.323,70.621,335.448,70.621z"/>
	<path style="fill:#EBF9FF;" d="M414.897,158.897h-61.793c-4.875,0-8.828-3.953-8.828-8.828l0,0c0-4.875,3.953-8.828,8.828-8.828
		h61.793c4.875,0,8.828,3.953,8.828,8.828l0,0C423.724,154.944,419.772,158.897,414.897,158.897z"/>
	<path style="fill:#EBF9FF;" d="M432.552,141.241h-35.31c-4.875,0-8.828-3.953-8.828-8.828l0,0c0-4.875,3.953-8.828,8.828-8.828
		h35.31c4.875,0,8.828,3.953,8.828,8.828l0,0C441.379,137.289,437.427,141.241,432.552,141.241z"/>
</g>
<circle style="fill:#FFFFFF;" cx="256" cy="229.517" r="141.241"/>
<path style="fill:#FFEBDC;" d="M185.379,229.517c0-65.79,45.046-120.91,105.931-136.612c-11.306-2.915-23.094-4.629-35.31-4.629
	c-78.005,0-141.241,63.236-141.241,141.241S177.995,370.759,256,370.759c12.216,0,24.004-1.714,35.31-4.629
	C230.425,350.428,185.379,295.307,185.379,229.517z"/>
<path style="fill:#643C46;" d="M256,88.276c-78.005,0-141.241,63.236-141.241,141.241S177.995,370.759,256,370.759
	s141.241-63.236,141.241-141.241S334.005,88.276,256,88.276z M264.97,123.968l39.385-13.319l49.79,33.368l-0.092,44.774
	l-38.936,9.428l-50.147-37.48L264.97,123.968L264.97,123.968z M204.028,109.693l43.287,14.408v36.386l-50.825,37.634l-38.253-9.323
	l-0.089-45.049L204.028,109.693z M143.456,295.729l-15.881-56.301l25.402-33.737l36.295,8.845l19.681,61.998l-22.662,33.239
	L143.456,295.729z M282.284,358.263c-0.079,0.114-0.094,0.25-0.167,0.366h-54.965c-0.073-0.116-0.087-0.253-0.167-0.366
	l-26.423-38.079l21.242-31.158h67.915l19.148,30.925L282.284,358.263z M384.57,239.238l-18.53,56.417l-42.77,14.023l-20.33-32.833
	l19.903-62.335l36.46-8.829L384.57,239.238z"/>
<path style="fill:#413241;" d="M273.006,369.638c1.574-0.189,3.115-0.472,4.672-0.713c4.607-0.744,9.163-1.644,13.624-2.794
	l0.007-0.002c-7.451-1.921-14.655-4.45-21.578-7.5h-42.579c-0.073-0.116-0.087-0.253-0.167-0.366l-26.423-38.079l8.508-12.478
	c-3.637-5.439-6.829-11.188-9.693-17.126l-13.085,19.192l-42.837-14.045l-15.881-56.301l25.402-33.737l33.372,8.134
	c0.659-5.93,1.662-11.751,3.033-17.434l-31.147-7.591l-0.089-45.049l45.881-34.056l32.945,10.966
	c15.668-12.878,34.094-22.532,54.337-27.753l-0.007-0.001c-4.454-1.149-9.002-2.047-13.602-2.791
	c-1.567-0.243-3.119-0.527-4.704-0.718c-1.683-0.214-3.384-0.365-5.086-0.518c-3.936-0.331-7.889-0.602-11.911-0.602
	c-78.005,0-141.241,63.236-141.241,141.241S177.995,370.759,256,370.759c4.021,0,7.974-0.273,11.908-0.601
	C269.613,370.004,271.32,369.853,273.006,369.638z"/>
</svg>